<svg width="32" height="36" viewBox="0 0 32 36" fill="none" xmlns="http://www.w3.org/2000/svg">
<circle cx="16" cy="16" r="16" fill="#0931DF"/>
<path d="M18.104 8.36C18.52 8.36 18.912 8.408 19.28 8.504C19.648 8.6 19.936 8.736 20.144 8.912L19.64 10.472C19.448 10.344 19.24 10.256 19.016 10.208C18.792 10.144 18.544 10.112 18.272 10.112C17.584 10.112 17.048 10.28 16.664 10.616C16.28 10.936 16.088 11.456 16.088 12.176V14V14.624V26H14.168V11.984C14.168 11.456 14.248 10.968 14.408 10.52C14.568 10.072 14.808 9.688 15.128 9.368C15.464 9.048 15.88 8.8 16.376 8.624C16.872 8.448 17.448 8.36 18.104 8.36ZM20.096 14V15.656H11.768V14H20.096Z" fill="white"/>
</svg>
