<svg width="102" height="75" viewBox="0 0 102 75" fill="none" xmlns="http://www.w3.org/2000/svg">
<path d="M69.3917 20.3796C52.9746 16.2528 58.6519 7.03862 63.5426 2.94738C59.6763 4.57795 50.5558 6.86074 45.0041 2.94738C38.0645 -1.94431 34.4956 2.94738 39.155 11.3077C42.8825 17.996 35.2887 21.5062 31.0258 22.4252C28.4482 21.0318 21.5087 18.672 14.3708 20.3796C5.44848 22.5142 16.7501 25.5381 26.0689 34.9658C35.3877 44.3934 22.1034 35.6773 12.0906 49.1962C2.0778 62.715 20.2198 49.1962 26.0689 49.1962C31.918 49.1962 33.0085 61.3809 39.155 63.4265C45.3015 65.4722 53.5298 59.9579 60.0729 68.3182C65.3073 75.0065 75.2077 74.3069 79.5037 73.121C85.2867 65.5018 94.6914 50.05 86.0467 49.1962C75.2408 48.1289 74.8442 39.1459 92.9863 31.1413C107.5 24.7377 99.0336 24.7377 92.9863 25.5381C91.9619 25.5381 85.8088 24.5064 69.3917 20.3796Z" fill="#0931DF" stroke="black" stroke-width="2"/>
<path d="M61.2589 20.3796C44.8418 16.2528 50.5191 7.03862 55.4098 2.94738C51.5435 4.57795 42.4229 6.86074 36.8713 2.94738C29.9317 -1.94431 26.3628 2.94738 31.0222 11.3077C34.7497 17.996 27.1558 21.5062 22.893 22.4252C20.3154 21.0318 13.3758 18.672 6.23799 20.3796C-2.68433 22.5142 8.61727 25.5381 17.9361 34.9658C27.2549 44.3934 13.9706 35.6773 3.95781 49.1962C-6.05502 62.715 12.087 49.1962 17.9361 49.1962C23.7852 49.1962 24.8757 61.3809 31.0222 63.4265C37.1687 65.4722 45.397 59.9579 51.94 68.3182C57.1745 75.0065 67.0749 74.3069 71.3709 73.121C77.1539 65.5018 86.5586 50.05 77.9139 49.1962C67.108 48.1289 66.7114 39.1459 84.8535 31.1413C99.3671 24.7377 90.9008 24.7377 84.8535 25.5381C83.8291 25.5381 77.6759 24.5064 61.2589 20.3796Z" fill="#91A4FF" stroke="black" stroke-width="2"/>
</svg>
