<svg width="27" height="45" viewBox="0 0 27 45" fill="none" xmlns="http://www.w3.org/2000/svg">
<g filter="url(#filter0_d_192_1013)">
<path d="M13.5 0.5C15.8388 0.5 18.0831 2.3569 19.7725 5.64648C21.4484 8.91012 22.5 13.454 22.5 18.5C22.5 23.546 21.4484 28.0899 19.7725 31.3535C18.0831 34.6431 15.8388 36.5 13.5 36.5C11.1612 36.5 8.91691 34.6431 7.22754 31.3535C5.55162 28.0899 4.5 23.546 4.5 18.5C4.5 13.454 5.55162 8.91012 7.22754 5.64648C8.91691 2.3569 11.1612 0.5 13.5 0.5Z" stroke="white" shape-rendering="crispEdges"/>
</g>
<path d="M13.6464 28.3536C13.8417 28.5488 14.1583 28.5488 14.3536 28.3536L17.5355 25.1716C17.7308 24.9763 17.7308 24.6597 17.5355 24.4645C17.3403 24.2692 17.0237 24.2692 16.8284 24.4645L14 27.2929L11.1716 24.4645C10.9763 24.2692 10.6597 24.2692 10.4645 24.4645C10.2692 24.6597 10.2692 24.9763 10.4645 25.1716L13.6464 28.3536ZM14 14H13.5V28H14H14.5V14H14Z" fill="white"/>
<defs>
<filter id="filter0_d_192_1013" x="0" y="0" width="27" height="45" filterUnits="userSpaceOnUse" color-interpolation-filters="sRGB">
<feFlood flood-opacity="0" result="BackgroundImageFix"/>
<feColorMatrix in="SourceAlpha" type="matrix" values="0 0 0 0 0 0 0 0 0 0 0 0 0 0 0 0 0 0 127 0" result="hardAlpha"/>
<feOffset dy="4"/>
<feGaussianBlur stdDeviation="2"/>
<feComposite in2="hardAlpha" operator="out"/>
<feColorMatrix type="matrix" values="0 0 0 0 1 0 0 0 0 1 0 0 0 0 1 0 0 0 1 0"/>
<feBlend mode="normal" in2="BackgroundImageFix" result="effect1_dropShadow_192_1013"/>
<feBlend mode="normal" in="SourceGraphic" in2="effect1_dropShadow_192_1013" result="shape"/>
</filter>
</defs>
</svg>
